<?xml version="1.0" standalone="yes"?>
<svg xmlns="http://www.w3.org/2000/svg" width="218" height="254">
<path style="fill:#ffffff; stroke:none;" d="M0 0L0 254L218 254L218 0L0 0z"/>
<path style="fill:#010101; stroke:none;" d="M41 32L41 184L42 184C42.0023 162.688 51.3573 145.128 61.5756 127C74.5123 104.049 87.2068 84.8748 104.69 65.0856C114.915 53.5116 126.256 36.9776 142 33L111 32L41 32z"/>
<path style="fill:#ff1401; stroke:none;" d="M142.667 32.3333L143.333 32.6667L142.667 32.3333M153.667 32.3333L154.333 32.6667L153.667 32.3333z"/>
<path style="fill:#010101; stroke:none;" d="M155 32L155 33C170.726 37.6279 176.441 55.1713 177 70L178 70L178 32L155 32z"/>
<path style="fill:#ff1401; stroke:none;" d="M139 33L140 34L139 33z"/>
<path style="fill:#ffffff; stroke:none;" d="M140.667 33.3333L141.333 33.6667L140.667 33.3333z"/>
<path style="fill:#ff9e01; stroke:none;" d="M45 193C44.2258 196.172 44.2177 198.085 47 200L47 206L50 206L50 207C49.6805 213.027 56.4354 218.504 62 219C66.2272 224.553 75.1118 221.142 81 221C85.7859 216.327 92.5957 213.633 97.5903 208.737C128.766 178.178 155.94 141.086 171.571 100C175.302 90.1928 174.618 80.0069 177 70L174 62C179.623 38.927 148.527 27.3465 132.039 37.7608C121.036 44.711 112.474 55.9044 104 65.5756C81.9277 90.7651 65.6665 116.8 51.0278 147C45.8369 157.709 41.9641 170.823 42.9892 182.829C43.2847 186.291 42.2223 190.625 45 193z"/>
<path style="fill:#ffffff; stroke:none;" d="M154 33L154 34L158 35L158 34L154 33z"/>
<path style="fill:#ff1401; stroke:none;" d="M157 33L158 34L157 33M136 34L135 36L136 34z"/>
<path style="fill:#ffffff; stroke:none;" d="M137.667 34.3333L138.333 34.6667L137.667 34.3333z"/>
<path style="fill:#ff1401; stroke:none;" d="M158.667 34.3333L159.333 34.6667L158.667 34.3333z"/>
<path style="fill:#ffffff; stroke:none;" d="M136 35L137 36L136 35M159 35L159 36L162 37L159 35z"/>
<path style="fill:#ff1401; stroke:none;" d="M161 35L162 36L161 35z"/>
<path style="fill:#ffffff; stroke:none;" d="M133 36L134 37L133 36z"/>
<path style="fill:#ff1401; stroke:none;" d="M162 36L163 37L162 36z"/>
<path style="fill:#ffffff; stroke:none;" d="M132 37L133 38L132 37M134 37L135 38L134 37M163 37L167 42L163 37z"/>
<path style="fill:#ff1401; stroke:none;" d="M164 37L165 38L164 37z"/>
<path style="fill:#ffffff; stroke:none;" d="M130 38L131 39L130 38z"/>
<path style="fill:#ff1401; stroke:none;" d="M129 39L130 40L129 39z"/>
<path style="fill:#ffffff; stroke:none;" d="M161 39L162 40L161 39z"/>
<path style="fill:#ff1401; stroke:none;" d="M165 39L166 40L165 39M127 40L128 41L127 40M167.333 40.6667L167.667 41.3333L167.333 40.6667z"/>
<path style="fill:#01ff01; stroke:none;" d="M126 41L127 42L126 41z"/>
<path style="fill:#ffffff; stroke:none;" d="M127 41L128 42L127 41z"/>
<path style="fill:#ff1401; stroke:none;" d="M125 42L125 44L127 42L125 42z"/>
<path style="fill:#ffffff; stroke:none;" d="M168.333 42.6667L168.667 43.3333L168.333 42.6667M124 43L125 44L124 43z"/>
<path style="fill:#ff1401; stroke:none;" d="M123 44L124 45L123 44z"/>
<path style="fill:#ffffff; stroke:none;" d="M169 44L171 50L172 50L169 44M122 45L123 46L122 45z"/>
<path style="fill:#ff1401; stroke:none;" d="M170 45L171 46L170 45M121 46L122 47L121 46M171.333 46.6667L171.667 47.3333L171.333 46.6667z"/>
<path style="fill:#ffffff; stroke:none;" d="M119 48L120 49L119 48z"/>
<path style="fill:#ff1401; stroke:none;" d="M169 48L170 49L169 48M172 48L174 54L175 54L172 48z"/>
<path style="fill:#ffffff; stroke:none;" d="M118 49L119 50L118 49z"/>
<path style="fill:#ff1401; stroke:none;" d="M116 51L117 52L116 51z"/>
<path style="fill:#ffffff; stroke:none;" d="M172 51L173 52L172 51M171 52L172 53L171 52M173.333 53.6667L173.667 54.3333L173.333 53.6667M174.333 55.6667L174.667 56.3333L174.333 55.6667M112 56L113 57L112 56z"/>
<path style="fill:#ff1401; stroke:none;" d="M175.333 57.6667L175.667 58.3333L175.333 57.6667z"/>
<path style="fill:#ffffff; stroke:none;" d="M110 58L111 59L110 58z"/>
<path style="fill:#ff1401; stroke:none;" d="M109 59L110 60L109 59z"/>
<path style="fill:#ffffff; stroke:none;" d="M174 59L174 62L175 62L174 59z"/>
<path style="fill:#01ff01; stroke:none;" d="M175 59L176 60L175 59z"/>
<path style="fill:#ffffff; stroke:none;" d="M108 60L109 61L108 60z"/>
<path style="fill:#ff1401; stroke:none;" d="M175 61L176 62L175 61M106 62L107 63L106 62M176 62L177 63L176 62z"/>
<path style="fill:#ffffff; stroke:none;" d="M176 64L177 65L176 64M104 65L105 66L104 65z"/>
<path style="fill:#ff1401; stroke:none;" d="M176 65L177 66L176 65z"/>
<path style="fill:#ffffff; stroke:none;" d="M176 66L177 67L176 66M102 67L103 68L102 67z"/>
<path style="fill:#ff1401; stroke:none;" d="M175.667 67.3333L176.333 67.6667L175.667 67.3333M101 68L102 69L101 68z"/>
<path style="fill:#ffffff; stroke:none;" d="M175 68L175 70L177 70L177 68L175 68z"/>
<path style="fill:#ff1401; stroke:none;" d="M100 69L101 70L100 69M177 70L178 71L177 70z"/>
<path style="fill:#01ff01; stroke:none;" d="M98 71L99 72L98 71z"/>
<path style="fill:#ffffff; stroke:none;" d="M176 71L177 72L176 71z"/>
<path style="fill:#010101; stroke:none;" d="M177 71L178 72L177 71z"/>
<path style="fill:#ff1401; stroke:none;" d="M176.667 72.3333L177.333 72.6667L176.667 72.3333M96 73L97 74L96 73z"/>
<path style="fill:#ffffff; stroke:none;" d="M176 73L176 76L177 76L176 73z"/>
<path style="fill:#010101; stroke:none;" d="M177 73L178 74L177 73z"/>
<path style="fill:#ffffff; stroke:none;" d="M96 74L97 75L96 74z"/>
<path style="fill:#01ff01; stroke:none;" d="M177 74L178 75L177 74z"/>
<path style="fill:#010101; stroke:none;" d="M177 75C175.707 94.4269 167.135 110.269 157.861 127C144.562 150.992 131.637 170.555 113.17 191C102.739 202.548 92.6983 217.469 77 222L77 223L178 223L178 119C178 106.532 181.807 86.4559 177 75z"/>
<path style="fill:#ff1401; stroke:none;" d="M176 76L177 77L176 76z"/>
<path style="fill:#ffffff; stroke:none;" d="M93 77L94 78L93 77M176 77L177 78L176 77M92 78L93 79L92 78z"/>
<path style="fill:#ff1401; stroke:none;" d="M176 78L177 79L176 78M91 79L92 80L91 79z"/>
<path style="fill:#ffffff; stroke:none;" d="M176 79L177 80L176 79z"/>
<path style="fill:#ff1401; stroke:none;" d="M90 80L91 81L90 80z"/>
<path style="fill:#ffffff; stroke:none;" d="M175.667 81.3333L176.333 81.6667L175.667 81.3333z"/>
<path style="fill:#01ff01; stroke:none;" d="M88 82L89 83L88 82z"/>
<path style="fill:#ff1401; stroke:none;" d="M175 82L175 84L177 84L175 82z"/>
<path style="fill:#ffffff; stroke:none;" d="M175 84L176 85L175 84M86 85L87 86L86 85z"/>
<path style="fill:#ff1401; stroke:none;" d="M175 85L176 86L175 85z"/>
<path style="fill:#ffffff; stroke:none;" d="M175 86L176 87L175 86M84 87L85 88L84 87M83 89L84 90L83 89M82 90L83 91L82 90M174 90L175 91L174 90z"/>
<path style="fill:#ff1401; stroke:none;" d="M81 91L82 92L81 91M174.333 91.6667L174.667 92.3333L174.333 91.6667z"/>
<path style="fill:#ffffff; stroke:none;" d="M173 92L174 93L173 92M79 94L80 95L79 94M173 94L174 95L173 94M78 96L79 97L78 96z"/>
<path style="fill:#01ff01; stroke:none;" d="M77 97L78 98L77 97z"/>
<path style="fill:#ff1401; stroke:none;" d="M172 97L173 98L172 97z"/>
<path style="fill:#ffffff; stroke:none;" d="M76 99L77 100L76 99z"/>
<path style="fill:#ff1401; stroke:none;" d="M171 100L172 101L171 100z"/>
<path style="fill:#ffffff; stroke:none;" d="M170 102L171 103L170 102z"/>
<path style="fill:#ff1401; stroke:none;" d="M170 103L171 104L170 103z"/>
<path style="fill:#01ff01; stroke:none;" d="M169 105L170 106L169 105z"/>
<path style="fill:#ffffff; stroke:none;" d="M168 106L169 107L168 106z"/>
<path style="fill:#ff1401; stroke:none;" d="M168 107L169 108L168 107M71 108L72 109L71 108M70 110L71 111L70 110z"/>
<path style="fill:#ffffff; stroke:none;" d="M166.333 110.667L166.667 111.333L166.333 110.667z"/>
<path style="fill:#ff1401; stroke:none;" d="M165 113L166 114L165 113M67.3333 115.667L67.6667 116.333L67.3333 115.667M66 117L67 118L66 117M65 119L66 120L65 119M64 121L65 122L64 121M160 122L161 123L160 122M63 123L64 124L63 123M159 124L160 125L159 124M60.3333 128.667L60.6667 129.333L60.3333 128.667M156 129L157 130L156 129M59 130L60 131L59 130M58 132L59 133L58 132z"/>
<path style="fill:#ffffff; stroke:none;" d="M154 133L155 134L154 133z"/>
<path style="fill:#ff1401; stroke:none;" d="M57 134L58 135L57 134M153 135L154 136L153 135z"/>
<path style="fill:#ffffff; stroke:none;" d="M56 136L57 137L56 136z"/>
<path style="fill:#ff1401; stroke:none;" d="M152 137L153 138L152 137M54.3333 139.667L54.6667 140.333L54.3333 139.667M53 141L54 142L53 141z"/>
<path style="fill:#ffffff; stroke:none;" d="M53 142L54 143L53 142z"/>
<path style="fill:#ff1401; stroke:none;" d="M149 142L150 143L149 142M52 143L53 144L52 143z"/>
<path style="fill:#ffffff; stroke:none;" d="M51 145L52 146L51 145z"/>
<path style="fill:#ff1401; stroke:none;" d="M51 146L52 147L51 146z"/>
<path style="fill:#ffffff; stroke:none;" d="M147 146L148 147L147 146z"/>
<path style="fill:#ff1401; stroke:none;" d="M50 147L51 148L50 147M146 148L147 149L146 148M49 149L50 150L49 149z"/>
<path style="fill:#ffffff; stroke:none;" d="M49 150L50 151L49 150z"/>
<path style="fill:#ff1401; stroke:none;" d="M145 150L146 151L145 150z"/>
<path style="fill:#01ff01; stroke:none;" d="M48 151L49 152L48 151z"/>
<path style="fill:#ff1401; stroke:none;" d="M48 152L49 153L48 152M47 153L48 154L47 153z"/>
<path style="fill:#ffffff; stroke:none;" d="M143 153L144 154L143 153M142 155L143 156L142 155M47 156L48 157L47 156z"/>
<path style="fill:#ff1401; stroke:none;" d="M46 157L47 158L46 157M141 157L142 158L141 157M45 160L46 161L45 160M139 160L140 161L139 160z"/>
<path style="fill:#ffffff; stroke:none;" d="M45 161L46 162L45 161z"/>
<path style="fill:#ff1401; stroke:none;" d="M44 162L45 163L44 162M138 162L139 163L138 162M45 163L46 164L45 163M137 163L138 164L137 163z"/>
<path style="fill:#ffffff; stroke:none;" d="M44 164L45 165L44 164z"/>
<path style="fill:#ff1401; stroke:none;" d="M135.333 165.667L135.667 166.333L135.333 165.667M43 167L43 170L44 170L45 167L43 167M134 167L135 168L134 167z"/>
<path style="fill:#ffffff; stroke:none;" d="M133 168L134 169L133 168M43 170L44 171L43 170z"/>
<path style="fill:#ff1401; stroke:none;" d="M130 172L131 173L130 172z"/>
<path style="fill:#01ff01; stroke:none;" d="M42 173L43 174L42 173z"/>
<path style="fill:#ffffff; stroke:none;" d="M43 173L44 174L43 173z"/>
<path style="fill:#ff1401; stroke:none;" d="M129 173L130 174L129 173M42.6667 174.333L43.3333 174.667L42.6667 174.333M128 174L129 175L128 174z"/>
<path style="fill:#ffffff; stroke:none;" d="M42.6667 175.333L43.3333 175.667L42.6667 175.333z"/>
<path style="fill:#ff1401; stroke:none;" d="M42 176L43 177L42 176z"/>
<path style="fill:#ffffff; stroke:none;" d="M126 176L127 177L126 176M42 177L43 178L42 177z"/>
<path style="fill:#ff1401; stroke:none;" d="M42 178L43 179L42 178M123 179L124 180L123 179M42 180L43 181L42 180z"/>
<path style="fill:#ffffff; stroke:none;" d="M42 181L43 182L42 181z"/>
<path style="fill:#ff1401; stroke:none;" d="M42 182L43 183L42 182z"/>
<path style="fill:#ffffff; stroke:none;" d="M42 183L42 187L43 187L42 183z"/>
<path style="fill:#ff1401; stroke:none;" d="M120 183L121 184L120 183M41 184L42 185L41 184M43 184L44 185L43 184M119 184L120 185L119 184z"/>
<path style="fill:#010101; stroke:none;" d="M41 185L41 223L64 223L64 222C45.0521 217.508 47.082 198.585 41 185z"/>
<path style="fill:#ffffff; stroke:none;" d="M118 185L119 186L118 185z"/>
<path style="fill:#ff1401; stroke:none;" d="M42 187L43 188L42 187z"/>
<path style="fill:#ffffff; stroke:none;" d="M42.6667 188.333L43.3333 188.667L42.6667 188.333M115 188L116 189L115 188z"/>
<path style="fill:#ff1401; stroke:none;" d="M42.3333 189.667L42.6667 190.333L42.3333 189.667M113 190L114 191L113 190M42 192L43 193L42 192z"/>
<path style="fill:#ffffff; stroke:none;" d="M43 193L45 196L43 193z"/>
<path style="fill:#ff1401; stroke:none;" d="M44 193L45 194L44 193z"/>
<path style="fill:#ffffff; stroke:none;" d="M110 194L111 195L110 194z"/>
<path style="fill:#ff1401; stroke:none;" d="M42 195L43 198L44 198L44 195L42 195z"/>
<path style="fill:#ffffff; stroke:none;" d="M109 195L110 196L109 195M45 197L46 198L45 197M44 198L46 202L47 201L44 198M105 199L106 200L105 199z"/>
<path style="fill:#ff1401; stroke:none;" d="M44.3333 200.667L44.6667 201.333L44.3333 200.667M45 202L46 206L47 206L45 202z"/>
<path style="fill:#ffffff; stroke:none;" d="M46 203L47 204L46 203M47 204L48 205L47 204z"/>
<path style="fill:#ff1401; stroke:none;" d="M101 204L102 205L101 204z"/>
<path style="fill:#ffffff; stroke:none;" d="M100 205L101 206L100 205z"/>
<path style="fill:#ff1401; stroke:none;" d="M47 206L48 211L49 211L47 206z"/>
<path style="fill:#ffffff; stroke:none;" d="M48 206L49 211L50 211L48 206z"/>
<path style="fill:#ff1401; stroke:none;" d="M49 206L50 207L49 206z"/>
<path style="fill:#ffffff; stroke:none;" d="M99 206L100 207L99 206M98 207L99 208L98 207M50 211L52 215L53 215L50 211M93.6667 211.333L94.3333 211.667L93.6667 211.333z"/>
<path style="fill:#ff1401; stroke:none;" d="M93 212L94 213L93 212M51 213L52 214L51 213z"/>
<path style="fill:#ffffff; stroke:none;" d="M91.6667 213.333L92.3333 213.667L91.6667 213.333z"/>
<path style="fill:#ff1401; stroke:none;" d="M53.3333 215.667L53.6667 216.333L53.3333 215.667z"/>
<path style="fill:#ffffff; stroke:none;" d="M54 215C56.1973 219.254 60.433 221.128 65 222L65 221L62 219L54 215z"/>
<path style="fill:#ff1401; stroke:none;" d="M90 215L91 216L90 215M88 216L89 217L88 216M55 217L56 218L55 217M86 217L87 218L86 217z"/>
<path style="fill:#ffffff; stroke:none;" d="M83 218L81 221L83 218z"/>
<path style="fill:#ff1401; stroke:none;" d="M85 218L86 219L85 218M57.6667 219.333L58.3333 219.667L57.6667 219.333M81 219L82 220L81 219M83 219L84 220L83 219M59 220L60 221L59 220z"/>
<path style="fill:#ffffff; stroke:none;" d="M78 220L77 222L79 222L78 220z"/>
<path style="fill:#ff1401; stroke:none;" d="M60.6667 221.333L61.3333 221.667L60.6667 221.333M79 221L80 222L79 221M64 222L64 223L67 223L64 222M75.6667 222.333L76.3333 222.667L75.6667 222.333z"/>
</svg>
